<svg width="900" height="1350" viewBox="0 0 900 1350" fill="none" xmlns="http://www.w3.org/2000/svg" role="img" aria-labelledby="title desc">
  <title id="title">Tools Jayden uses often</title>
  <desc id="desc">Operating systems, design tools, video editing software, productivity apps, coding languages, and website builders.</desc>
  <defs>
    <linearGradient id="panelBg" x1="0" y1="0" x2="900" y2="1350" gradientUnits="userSpaceOnUse">
      <stop offset="0" stop-color="#000000"/>
      <stop offset="0.58" stop-color="#171312"/>
      <stop offset="1" stop-color="#544741"/>
    </linearGradient>
    <radialGradient id="greenGlow" cx="0" cy="0" r="1" gradientUnits="userSpaceOnUse" gradientTransform="translate(170 110) rotate(35) scale(460 260)">
      <stop stop-color="#abcf37" stop-opacity="0.38"/>
      <stop offset="1" stop-color="#abcf37" stop-opacity="0"/>
    </radialGradient>
    <linearGradient id="shine" x1="0" y1="0" x2="1" y2="0">
      <stop offset="0" stop-color="#ffffff" stop-opacity="0"/>
      <stop offset="0.5" stop-color="#ffffff" stop-opacity="0.15"/>
      <stop offset="1" stop-color="#ffffff" stop-opacity="0"/>
    </linearGradient>
    <clipPath id="clip"><rect width="900" height="1350" rx="44"/></clipPath>
  </defs>
  <g clip-path="url(#clip)">
    <rect width="900" height="1350" rx="44" fill="url(#panelBg)"/>
    <rect width="900" height="1350" rx="44" fill="url(#greenGlow)"/>
    <path d="M-900 0L0 0L900 1350L0 1350Z" fill="url(#shine)" opacity="0.65">
      <animateTransform attributeName="transform" type="translate" from="-260 0" to="1180 0" dur="9s" repeatCount="indefinite"/>
    </path>
<rect x="36" y="36" width="828" height="248" rx="34" fill="#ffffff" fill-opacity="0.07" stroke="#ffffff" stroke-opacity="0.13"/>
<text x="60" y="86" fill="#ffffff" font-family="Inter, ui-sans-serif, system-ui, -apple-system, BlinkMacSystemFont, Segoe UI, sans-serif" font-size="28" font-weight="850">Operating systems</text>
    <g>
      <rect x="60" y="114" width="176" height="66" rx="33" fill="#0078D4"/>
      <rect x="73" y="126" width="42" height="42" rx="15" fill="#ffffff" fill-opacity="0.18"/>

      <rect x="80" y="133" width="11.6" height="11.6" rx="2.8" fill="#ffffff"/>
      <rect x="95.4" y="133" width="11.6" height="11.6" rx="2.8" fill="#ffffff"/>
      <rect x="80" y="148.4" width="11.6" height="11.6" rx="2.8" fill="#ffffff"/>
      <rect x="95.4" y="148.4" width="11.6" height="11.6" rx="2.8" fill="#ffffff"/>
      <text x="133" y="155.5" fill="#ffffff" font-family="Inter, ui-sans-serif, system-ui, -apple-system, BlinkMacSystemFont, Segoe UI, sans-serif" font-size="22" font-weight="850">Windows</text>
    </g>
    <g>
      <rect x="250" y="114" width="154" height="66" rx="33" fill="#000000"/>
      <rect x="263" y="126" width="42" height="42" rx="15" fill="#ffffff" fill-opacity="0.18"/>
<path d="M12.152 6.896c-.948 0-2.415-1.078-3.96-1.04-2.04.027-3.91 1.183-4.961 3.014-2.117 3.675-.546 9.103 1.519 12.09 1.013 1.454 2.208 3.09 3.792 3.039 1.52-.065 2.09-.987 3.935-.987 1.831 0 2.35.987 3.96.948 1.637-.026 2.676-1.48 3.676-2.948 1.156-1.688 1.636-3.325 1.662-3.415-.039-.013-3.182-1.221-3.22-4.857-.026-3.04 2.48-4.494 2.597-4.559-1.429-2.09-3.623-2.324-4.39-2.376-2-.156-3.675 1.09-4.61 1.09zM15.53 3.83c.843-1.012 1.4-2.427 1.245-3.83-1.207.052-2.662.805-3.532 1.818-.78.896-1.454 2.338-1.273 3.714 1.338.104 2.715-.688 3.559-1.701" fill="#ffffff" transform="translate(269.5 132.5) scale(1.2083333333333333)"/>
      <text x="323" y="155.5" fill="#ffffff" font-family="Inter, ui-sans-serif, system-ui, -apple-system, BlinkMacSystemFont, Segoe UI, sans-serif" font-size="22" font-weight="850">macOS</text>
    </g>
    <g>
      <rect x="418" y="114" width="144" height="66" rx="33" fill="#FCC624"/>
      <rect x="431" y="126" width="42" height="42" rx="15" fill="#000000" fill-opacity="0.12"/>
<path d="M12.504 0c-.155 0-.315.008-.48.021-4.226.333-3.105 4.807-3.17 6.298-.076 1.092-.3 1.953-1.05 3.02-.885 1.051-2.127 2.75-2.716 4.521-.278.832-.41 1.684-.287 2.489a.424.424 0 00-.11.135c-.26.268-.45.6-.663.839-.199.199-.485.267-.797.4-.313.136-.658.269-.864.68-.09.189-.136.394-.132.602 0 .199.027.4.055.536.058.399.116.728.04.97-.249.68-.28 1.145-.106 1.484.174.334.535.47.94.601.81.2 1.91.135 2.774.6.926.466 1.866.67 2.616.47.526-.116.97-.464 1.208-.946.587-.003 1.23-.269 2.26-.334.699-.058 1.574.267 2.577.2.025.134.063.198.114.333l.003.003c.391.778 1.113 1.132 1.884 1.071.771-.06 1.592-.536 2.257-1.306.631-.765 1.683-1.084 2.378-1.503.348-.199.629-.469.649-.853.023-.4-.2-.811-.714-1.376v-.097l-.003-.003c-.17-.2-.25-.535-.338-.926-.085-.401-.182-.786-.492-1.046h-.003c-.059-.054-.123-.067-.188-.135a.357.357 0 00-.19-.064c.431-1.278.264-2.55-.173-3.694-.533-1.41-1.465-2.638-2.175-3.483-.796-1.005-1.576-1.957-1.56-3.368.026-2.152.236-6.133-3.544-6.139zm.529 3.405h.013c.213 0 .396.062.584.198.19.135.33.332.438.533.105.259.158.459.166.724 0-.02.006-.04.006-.06v.105a.086.086 0 01-.004-.021l-.004-.024a1.807 1.807 0 01-.15.706.953.953 0 01-.213.335.71.71 0 00-.088-.042c-.104-.045-.198-.064-.284-.133a1.312 1.312 0 00-.22-.066c.05-.06.146-.133.183-.198.053-.128.082-.264.088-.402v-.02a1.21 1.21 0 00-.061-.4c-.045-.134-.101-.2-.183-.333-.084-.066-.167-.132-.267-.132h-.016c-.093 0-.176.03-.262.132a.8.8 0 00-.205.334 1.18 1.18 0 00-.09.4v.019c.002.089.008.179.02.267-.193-.067-.438-.135-.607-.202a1.635 1.635 0 01-.018-.2v-.02a1.772 1.772 0 01.15-.768c.082-.22.232-.406.43-.533a.985.985 0 01.594-.2zm-2.962.059h.036c.142 0 .27.048.399.135.146.129.264.288.344.465.09.199.14.4.153.667v.004c.007.134.006.2-.002.266v.08c-.03.007-.056.018-.083.024-.152.055-.274.135-.393.2.012-.09.013-.18.003-.267v-.015c-.012-.133-.04-.2-.082-.333a.613.613 0 00-.166-.267.248.248 0 00-.183-.064h-.021c-.071.006-.13.04-.186.132a.552.552 0 00-.12.27.944.944 0 00-.023.33v.015c.012.135.037.2.08.334.046.134.098.2.166.268.01.009.02.018.034.024-.07.057-.117.07-.176.136a.304.304 0 01-.131.068 2.62 2.62 0 01-.275-.402 1.772 1.772 0 01-.155-.667 1.759 1.759 0 01.08-.668 1.43 1.43 0 01.283-.535c.128-.133.26-.2.418-.2zm1.37 1.706c.332 0 .733.065 1.216.399.293.2.523.269 1.052.468h.003c.255.136.405.266.478.399v-.131a.571.571 0 01.016.47c-.123.31-.516.643-1.063.842v.002c-.268.135-.501.333-.775.465-.276.135-.588.292-1.012.267a1.139 1.139 0 01-.448-.067 3.566 3.566 0 01-.322-.198c-.195-.135-.363-.332-.612-.465v-.005h-.005c-.4-.246-.616-.512-.686-.71-.07-.268-.005-.47.193-.6.224-.135.38-.271.483-.336.104-.074.143-.102.176-.131h.002v-.003c.169-.202.436-.47.839-.601.139-.036.294-.065.466-.065zm2.8 2.142c.358 1.417 1.196 3.475 1.735 4.473.286.534.855 1.659 1.102 3.024.156-.005.33.018.513.064.646-1.671-.546-3.467-1.089-3.966-.22-.2-.232-.335-.123-.335.59.534 1.365 1.572 1.646 2.757.13.535.16 1.104.021 1.67.067.028.135.06.205.067 1.032.534 1.413.938 1.23 1.537v-.043c-.06-.003-.12 0-.18 0h-.016c.151-.467-.182-.825-1.065-1.224-.915-.4-1.646-.336-1.77.465-.008.043-.013.066-.018.135-.068.023-.139.053-.209.064-.43.268-.662.669-.793 1.187-.13.533-.17 1.156-.205 1.869v.003c-.02.334-.17.838-.319 1.35-1.5 1.072-3.58 1.538-5.348.334a2.645 2.645 0 00-.402-.533 1.45 1.45 0 00-.275-.333c.182 0 .338-.03.465-.067a.615.615 0 00.314-.334c.108-.267 0-.697-.345-1.163-.345-.467-.931-.995-1.788-1.521-.63-.4-.986-.87-1.15-1.396-.165-.534-.143-1.085-.015-1.645.245-1.07.873-2.11 1.274-2.763.107-.065.037.135-.408.974-.396.751-1.14 2.497-.122 3.854a8.123 8.123 0 01.647-2.876c.564-1.278 1.743-3.504 1.836-5.268.048.036.217.135.289.202.218.133.38.333.59.465.21.201.477.335.876.335.039.003.075.006.11.006.412 0 .73-.134.997-.268.29-.134.52-.334.74-.4h.005c.467-.135.835-.402 1.044-.7zm2.185 8.958c.037.6.343 1.245.882 1.377.588.134 1.434-.333 1.791-.765l.211-.01c.315-.007.577.01.847.268l.003.003c.208.199.305.53.391.876.085.4.154.78.409 1.066.486.527.645.906.636 1.14l.003-.007v.018l-.003-.012c-.015.262-.185.396-.498.595-.63.401-1.746.712-2.457 1.57-.618.737-1.37 1.14-2.036 1.191-.664.053-1.237-.2-1.574-.898l-.005-.003c-.21-.4-.12-1.025.056-1.69.176-.668.428-1.344.463-1.897.037-.714.076-1.335.195-1.814.12-.465.308-.797.641-.984l.045-.022zm-10.814.049h.01c.053 0 .105.005.157.014.376.055.706.333 1.023.752l.91 1.664.003.003c.243.533.754 1.064 1.189 1.637.434.598.77 1.131.729 1.57v.006c-.057.744-.48 1.148-1.125 1.294-.645.135-1.52.002-2.395-.464-.968-.536-2.118-.469-2.857-.602-.369-.066-.61-.2-.723-.4-.11-.2-.113-.602.123-1.23v-.004l.002-.003c.117-.334.03-.752-.027-1.118-.055-.401-.083-.71.043-.94.16-.334.396-.4.69-.533.294-.135.64-.202.915-.47h.002v-.002c.256-.268.445-.601.668-.838.19-.201.38-.336.663-.336zm7.159-9.074c-.435.201-.945.535-1.488.535-.542 0-.97-.267-1.28-.466-.154-.134-.28-.268-.373-.335-.164-.134-.144-.333-.074-.333.109.016.129.134.199.2.096.066.215.2.36.333.292.2.68.467 1.167.467.485 0 1.053-.267 1.398-.466.195-.135.445-.334.648-.467.156-.136.149-.267.279-.267.128.016.034.134-.147.332a8.097 8.097 0 01-.69.468zm-1.082-1.583V5.64c-.006-.02.013-.042.029-.05.074-.043.18-.027.26.004.063 0 .16.067.15.135-.006.049-.085.066-.135.066-.055 0-.092-.043-.141-.068-.052-.018-.146-.008-.163-.065zm-.551 0c-.02.058-.113.049-.166.066-.047.025-.086.068-.14.068-.05 0-.13-.02-.136-.068-.01-.066.088-.133.15-.133.08-.031.184-.047.259-.005.019.009.036.03.03.05v.02h.003z" fill="#101010" transform="translate(437.5 132.5) scale(1.2083333333333333)"/>
      <text x="491" y="155.5" fill="#101010" font-family="Inter, ui-sans-serif, system-ui, -apple-system, BlinkMacSystemFont, Segoe UI, sans-serif" font-size="22" font-weight="850">Linux</text>
    </g>
    <g>
      <rect x="576" y="114" width="118" height="66" rx="33" fill="#000000"/>
      <rect x="589" y="126" width="42" height="42" rx="15" fill="#ffffff" fill-opacity="0.18"/>
<path d="M12.152 6.896c-.948 0-2.415-1.078-3.96-1.04-2.04.027-3.91 1.183-4.961 3.014-2.117 3.675-.546 9.103 1.519 12.09 1.013 1.454 2.208 3.09 3.792 3.039 1.52-.065 2.09-.987 3.935-.987 1.831 0 2.35.987 3.96.948 1.637-.026 2.676-1.48 3.676-2.948 1.156-1.688 1.636-3.325 1.662-3.415-.039-.013-3.182-1.221-3.22-4.857-.026-3.04 2.48-4.494 2.597-4.559-1.429-2.09-3.623-2.324-4.39-2.376-2-.156-3.675 1.09-4.61 1.09zM15.53 3.83c.843-1.012 1.4-2.427 1.245-3.83-1.207.052-2.662.805-3.532 1.818-.78.896-1.454 2.338-1.273 3.714 1.338.104 2.715-.688 3.559-1.701" fill="#ffffff" transform="translate(595.5 132.5) scale(1.2083333333333333)"/>
      <text x="649" y="155.5" fill="#ffffff" font-family="Inter, ui-sans-serif, system-ui, -apple-system, BlinkMacSystemFont, Segoe UI, sans-serif" font-size="22" font-weight="850">iOS</text>
    </g>
    <g>
      <rect x="60" y="194" width="174" height="66" rx="33" fill="#3DDC84"/>
      <rect x="73" y="206" width="42" height="42" rx="15" fill="#000000" fill-opacity="0.12"/>
<path d="M18.4395 5.5586c-.675 1.1664-1.352 2.3318-2.0274 3.498-.0366-.0155-.0742-.0286-.1113-.043-1.8249-.6957-3.484-.8-4.42-.787-1.8551.0185-3.3544.4643-4.2597.8203-.084-.1494-1.7526-3.021-2.0215-3.4864a1.1451 1.1451 0 0 0-.1406-.1914c-.3312-.364-.9054-.4859-1.379-.203-.475.282-.7136.9361-.3886 1.5019 1.9466 3.3696-.0966-.2158 1.9473 3.3593.0172.031-.4946.2642-1.3926 1.0177C2.8987 12.176.452 14.772 0 18.9902h24c-.119-1.1108-.3686-2.099-.7461-3.0683-.7438-1.9118-1.8435-3.2928-2.7402-4.1836a12.1048 12.1048 0 0 0-2.1309-1.6875c.6594-1.122 1.312-2.2559 1.9649-3.3848.2077-.3615.1886-.7956-.0079-1.1191a1.1001 1.1001 0 0 0-.8515-.5332c-.5225-.0536-.9392.3128-1.0488.5449zm-.0391 8.461c.3944.5926.324 1.3306-.1563 1.6503-.4799.3197-1.188.0985-1.582-.4941-.3944-.5927-.324-1.3307.1563-1.6504.4727-.315 1.1812-.1086 1.582.4941zM7.207 13.5273c.4803.3197.5506 1.0577.1563 1.6504-.394.5926-1.1038.8138-1.584.4941-.48-.3197-.5503-1.0577-.1563-1.6504.4008-.6021 1.1087-.8106 1.584-.4941z" fill="#101010" transform="translate(79.5 212.5) scale(1.2083333333333333)"/>
      <text x="133" y="235.5" fill="#101010" font-family="Inter, ui-sans-serif, system-ui, -apple-system, BlinkMacSystemFont, Segoe UI, sans-serif" font-size="22" font-weight="850">Android</text>
    </g>
<rect x="36" y="306" width="828" height="168" rx="34" fill="#ffffff" fill-opacity="0.07" stroke="#ffffff" stroke-opacity="0.13"/>
<text x="60" y="356" fill="#ffffff" font-family="Inter, ui-sans-serif, system-ui, -apple-system, BlinkMacSystemFont, Segoe UI, sans-serif" font-size="28" font-weight="850">Design</text>
    <g>
      <rect x="60" y="384" width="198" height="66" rx="33" fill="#31A8FF"/>
      <rect x="73" y="396" width="42" height="42" rx="15" fill="#000000" fill-opacity="0.12"/>
<text x="94" y="425.5" text-anchor="middle" fill="#001E36" font-family="Inter, ui-sans-serif, system-ui, -apple-system, BlinkMacSystemFont, Segoe UI, sans-serif" font-size="24" font-weight="900">Ps</text>
      <text x="133" y="425.5" fill="#001E36" font-family="Inter, ui-sans-serif, system-ui, -apple-system, BlinkMacSystemFont, Segoe UI, sans-serif" font-size="22" font-weight="850">Photoshop</text>
    </g>
    <g>
      <rect x="272" y="384" width="210" height="66" rx="33" fill="#FF9A00"/>
      <rect x="285" y="396" width="42" height="42" rx="15" fill="#000000" fill-opacity="0.12"/>
<text x="306" y="425.5" text-anchor="middle" fill="#330000" font-family="Inter, ui-sans-serif, system-ui, -apple-system, BlinkMacSystemFont, Segoe UI, sans-serif" font-size="24" font-weight="900">Ai</text>
      <text x="345" y="425.5" fill="#330000" font-family="Inter, ui-sans-serif, system-ui, -apple-system, BlinkMacSystemFont, Segoe UI, sans-serif" font-size="22" font-weight="850">Illustrator</text>
    </g>
    <g>
      <rect x="496" y="384" width="154" height="66" rx="33" fill="#F24E1E"/>
      <rect x="509" y="396" width="42" height="42" rx="15" fill="#ffffff" fill-opacity="0.18"/>
<path d="M15.852 8.981h-4.588V0h4.588c2.476 0 4.49 2.014 4.49 4.49s-2.014 4.491-4.49 4.491zM12.735 7.51h3.117c1.665 0 3.019-1.355 3.019-3.019s-1.355-3.019-3.019-3.019h-3.117V7.51zm0 1.471H8.148c-2.476 0-4.49-2.014-4.49-4.49S5.672 0 8.148 0h4.588v8.981zm-4.587-7.51c-1.665 0-3.019 1.355-3.019 3.019s1.354 3.02 3.019 3.02h3.117V1.471H8.148zm4.587 15.019H8.148c-2.476 0-4.49-2.014-4.49-4.49s2.014-4.49 4.49-4.49h4.588v8.98zM8.148 8.981c-1.665 0-3.019 1.355-3.019 3.019s1.355 3.019 3.019 3.019h3.117V8.981H8.148zM8.172 24c-2.489 0-4.515-2.014-4.515-4.49s2.014-4.49 4.49-4.49h4.588v4.441c0 2.503-2.047 4.539-4.563 4.539zm-.024-7.51a3.023 3.023 0 0 0-3.019 3.019c0 1.665 1.365 3.019 3.044 3.019 1.705 0 3.093-1.376 3.093-3.068v-2.97H8.148zm7.704 0h-.098c-2.476 0-4.49-2.014-4.49-4.49s2.014-4.49 4.49-4.49h.098c2.476 0 4.49 2.014 4.49 4.49s-2.014 4.49-4.49 4.49zm-.097-7.509c-1.665 0-3.019 1.355-3.019 3.019s1.355 3.019 3.019 3.019h.098c1.665 0 3.019-1.355 3.019-3.019s-1.355-3.019-3.019-3.019h-.098z" fill="#ffffff" transform="translate(515.5 402.5) scale(1.2083333333333333)"/>
      <text x="569" y="425.5" fill="#ffffff" font-family="Inter, ui-sans-serif, system-ui, -apple-system, BlinkMacSystemFont, Segoe UI, sans-serif" font-size="22" font-weight="850">Figma</text>
    </g>
<rect x="36" y="496" width="828" height="168" rx="34" fill="#ffffff" fill-opacity="0.07" stroke="#ffffff" stroke-opacity="0.13"/>
<text x="60" y="546" fill="#ffffff" font-family="Inter, ui-sans-serif, system-ui, -apple-system, BlinkMacSystemFont, Segoe UI, sans-serif" font-size="28" font-weight="850">Video</text>
    <g>
      <rect x="60" y="574" width="230" height="66" rx="33" fill="#000000"/>
      <rect x="73" y="586" width="42" height="42" rx="15" fill="#ffffff" fill-opacity="0.18"/>
<text x="94" y="615.5" text-anchor="middle" fill="#ffffff" font-family="Inter, ui-sans-serif, system-ui, -apple-system, BlinkMacSystemFont, Segoe UI, sans-serif" font-size="24" font-weight="900">Fc</text>
      <text x="133" y="615.5" fill="#ffffff" font-family="Inter, ui-sans-serif, system-ui, -apple-system, BlinkMacSystemFont, Segoe UI, sans-serif" font-size="22" font-weight="850">Final Cut Pro</text>
    </g>
    <g>
      <rect x="304" y="574" width="230" height="66" rx="33" fill="#9999FF"/>
      <rect x="317" y="586" width="42" height="42" rx="15" fill="#000000" fill-opacity="0.12"/>
<text x="338" y="615.5" text-anchor="middle" fill="#00005B" font-family="Inter, ui-sans-serif, system-ui, -apple-system, BlinkMacSystemFont, Segoe UI, sans-serif" font-size="24" font-weight="900">Ae</text>
      <text x="377" y="615.5" fill="#00005B" font-family="Inter, ui-sans-serif, system-ui, -apple-system, BlinkMacSystemFont, Segoe UI, sans-serif" font-size="22" font-weight="850">After Effects</text>
    </g>
    <g>
      <rect x="548" y="574" width="262" height="66" rx="33" fill="#233A51"/>
      <rect x="561" y="586" width="42" height="42" rx="15" fill="#ffffff" fill-opacity="0.18"/>
<path d="M17.621 0 5.977.004c-1.37 0-2.756.345-3.762 1.11a4.925 4.925 0 0 0-1.61 2.003C.233 3.93 0 5.02 0 5.951l.012 12.2c.002 1.604.479 3.057 1.461 4.112.984 1.056 2.462 1.683 4.331 1.691L16.856 24c1.26.005 3.095-.036 4.303-.714 1.075-.605 2.025-1.556 2.497-2.984.278-.84.345-2.084.344-3.147l-.021-11.13c-.002-.888-.15-2.023-.547-2.934-.425-.976-1.181-1.815-2.322-2.425C20.353.26 19.123 0 17.622 0zm0 .93c1.378 0 2.538.295 3.04.565.977.523 1.544 1.166 1.889 1.96.315.721.47 1.793.473 2.572l.018 11.13c.002 1.013-.097 2.257-.298 2.86-.396 1.202-1.146 1.946-2.063 2.462-.814.457-2.612.593-3.82.588l-11.05-.044c-1.657-.007-2.832-.534-3.626-1.386-.792-.851-1.212-2.06-1.212-3.485L.999 5.95c0-.829.196-1.827.474-2.437.345-.757.75-1.207 1.365-1.674C3.585 1.27 4.868.97 6.08.97zm-5.66 3.423c-1.976.089-3.204 1.658-3.214 3.29.019 1.443 1.635 3.481 2.884 4.53.12.099.154.109.33.18.062.025.198-.047.327-.135.36-.245.993-.947 1.648-1.738a7.67 7.67 0 0 0 1.031-1.683c.409-.89.261-1.599.235-1.888a3.983 3.983 0 0 0-.99-1.692 3.36 3.36 0 0 0-2.251-.864zm4.172 7.922a10.185 10.185 0 0 0-3.244.61c-.15.058-.26.1-.374.17-.057.036-.11.135-.105.292.017.433.29 1.278.624 2.27.384 1.135 1.066 2.27 1.844 2.74a3.23 3.23 0 0 0 2.53.342c.832-.243 1.595-.868 1.962-1.546.986-1.818.19-3.548-1.121-4.417-.447-.296-1.133-.445-1.89-.46-.074 0-.15-.002-.226-.001zm-8.432.038a6.201 6.201 0 0 0-.752.047c-.596.078-.932.273-1.29.51a3.177 3.177 0 0 0-1.365 1.979c-.075.552-.086 1.053.033 1.507.433 1.389 1.326 2.222 2.847 2.452.636.028 1.37-.063 1.99-.45 1.269-.782 2.08-3.17 2.412-4.742.053-.176.035-.357-.013-.42-.005-.067-.044-.113-.19-.183-.398-.192-1.32-.417-2.375-.6a7.68 7.68 0 0 0-1.297-.1z" fill="#ffffff" transform="translate(567.5 592.5) scale(1.2083333333333333)"/>
      <text x="621" y="615.5" fill="#ffffff" font-family="Inter, ui-sans-serif, system-ui, -apple-system, BlinkMacSystemFont, Segoe UI, sans-serif" font-size="22" font-weight="850">DaVinci Resolve</text>
    </g>
<rect x="36" y="686" width="828" height="168" rx="34" fill="#ffffff" fill-opacity="0.07" stroke="#ffffff" stroke-opacity="0.13"/>
<text x="60" y="736" fill="#ffffff" font-family="Inter, ui-sans-serif, system-ui, -apple-system, BlinkMacSystemFont, Segoe UI, sans-serif" font-size="28" font-weight="850">Productivity</text>
    <g>
      <rect x="60" y="764" width="132" height="66" rx="33" fill="#2B579A"/>
      <rect x="73" y="776" width="42" height="42" rx="15" fill="#ffffff" fill-opacity="0.18"/>
<text x="94" y="805.5" text-anchor="middle" fill="#ffffff" font-family="Inter, ui-sans-serif, system-ui, -apple-system, BlinkMacSystemFont, Segoe UI, sans-serif" font-size="28" font-weight="900">W</text>
      <text x="133" y="805.5" fill="#ffffff" font-family="Inter, ui-sans-serif, system-ui, -apple-system, BlinkMacSystemFont, Segoe UI, sans-serif" font-size="22" font-weight="850">Word</text>
    </g>
    <g>
      <rect x="206" y="764" width="140" height="66" rx="33" fill="#217346"/>
      <rect x="219" y="776" width="42" height="42" rx="15" fill="#ffffff" fill-opacity="0.18"/>
<text x="240" y="805.5" text-anchor="middle" fill="#ffffff" font-family="Inter, ui-sans-serif, system-ui, -apple-system, BlinkMacSystemFont, Segoe UI, sans-serif" font-size="28" font-weight="900">X</text>
      <text x="279" y="805.5" fill="#ffffff" font-family="Inter, ui-sans-serif, system-ui, -apple-system, BlinkMacSystemFont, Segoe UI, sans-serif" font-size="22" font-weight="850">Excel</text>
    </g>
    <g>
      <rect x="360" y="764" width="210" height="66" rx="33" fill="#4285F4"/>
      <rect x="373" y="776" width="42" height="42" rx="15" fill="#ffffff" fill-opacity="0.18"/>
<path d="M14.727 6.727H14V0H4.91c-.905 0-1.637.732-1.637 1.636v20.728c0 .904.732 1.636 1.636 1.636h14.182c.904 0 1.636-.732 1.636-1.636V6.727h-6zm-.545 10.455H7.09v-1.364h7.09v1.364zm2.727-3.273H7.091v-1.364h9.818v1.364zm0-3.273H7.091V9.273h9.818v1.363zM14.727 6h6l-6-6v6z" fill="#ffffff" transform="translate(379.5 782.5) scale(1.2083333333333333)"/>
      <text x="433" y="805.5" fill="#ffffff" font-family="Inter, ui-sans-serif, system-ui, -apple-system, BlinkMacSystemFont, Segoe UI, sans-serif" font-size="22" font-weight="850">Google Docs</text>
    </g>
    <g>
      <rect x="584" y="764" width="228" height="66" rx="33" fill="#34A853"/>
      <rect x="597" y="776" width="42" height="42" rx="15" fill="#ffffff" fill-opacity="0.18"/>
<path d="M11.318 12.545H7.91v-1.909h3.41v1.91zM14.728 0v6h6l-6-6zm1.363 10.636h-3.41v1.91h3.41v-1.91zm0 3.273h-3.41v1.91h3.41v-1.91zM20.727 6.5v15.864c0 .904-.732 1.636-1.636 1.636H4.909a1.636 1.636 0 0 1-1.636-1.636V1.636C3.273.732 4.005 0 4.909 0h9.318v6.5h6.5zm-3.273 2.773H6.545v7.909h10.91v-7.91zm-6.136 4.636H7.91v1.91h3.41v-1.91z" fill="#ffffff" transform="translate(603.5 782.5) scale(1.2083333333333333)"/>
      <text x="657" y="805.5" fill="#ffffff" font-family="Inter, ui-sans-serif, system-ui, -apple-system, BlinkMacSystemFont, Segoe UI, sans-serif" font-size="22" font-weight="850">Google Sheets</text>
    </g>
<rect x="36" y="876" width="828" height="248" rx="34" fill="#ffffff" fill-opacity="0.07" stroke="#ffffff" stroke-opacity="0.13"/>
<text x="60" y="926" fill="#ffffff" font-family="Inter, ui-sans-serif, system-ui, -apple-system, BlinkMacSystemFont, Segoe UI, sans-serif" font-size="28" font-weight="850">Code</text>
    <g>
      <rect x="60" y="954" width="150" height="66" rx="33" fill="#E34F26"/>
      <rect x="73" y="966" width="42" height="42" rx="15" fill="#ffffff" fill-opacity="0.18"/>
<path d="M1.5 0h21l-1.91 21.563L11.977 24l-8.564-2.438L1.5 0zm7.031 9.75l-.232-2.718 10.059.003.23-2.622L5.412 4.41l.698 8.01h9.126l-.326 3.426-2.91.804-2.955-.81-.188-2.11H6.248l.33 4.171L12 19.351l5.379-1.443.744-8.157H8.531z" fill="#ffffff" transform="translate(79.5 972.5) scale(1.2083333333333333)"/>
      <text x="133" y="995.5" fill="#ffffff" font-family="Inter, ui-sans-serif, system-ui, -apple-system, BlinkMacSystemFont, Segoe UI, sans-serif" font-size="22" font-weight="850">HTML5</text>
    </g>
    <g>
      <rect x="224" y="954" width="118" height="66" rx="33" fill="#663399"/>
      <rect x="237" y="966" width="42" height="42" rx="15" fill="#ffffff" fill-opacity="0.18"/>
<path d="M0 0v20.16A3.84 3.84 0 0 0 3.84 24h16.32A3.84 3.84 0 0 0 24 20.16V3.84A3.84 3.84 0 0 0 20.16 0Zm14.256 13.08c1.56 0 2.28 1.08 2.304 2.64h-1.608c.024-.288-.048-.6-.144-.84-.096-.192-.288-.264-.552-.264-.456 0-.696.264-.696.84-.024.576.288.888.768 1.08.72.288 1.608.744 1.92 1.296q.432.648.432 1.656c0 1.608-.912 2.592-2.496 2.592-1.656 0-2.4-1.032-2.424-2.688h1.68c0 .792.264 1.176.792 1.176.264 0 .456-.072.552-.24.192-.312.24-1.176-.048-1.512-.312-.408-.912-.6-1.32-.816q-.828-.396-1.224-.936c-.24-.36-.36-.888-.36-1.536 0-1.44.936-2.472 2.424-2.448m5.4 0c1.584 0 2.304 1.08 2.328 2.64h-1.608c0-.288-.048-.6-.168-.84-.096-.192-.264-.264-.528-.264-.48 0-.72.264-.72.84s.288.888.792 1.08c.696.288 1.608.744 1.92 1.296.264.432.408.984.408 1.656.024 1.608-.888 2.592-2.472 2.592-1.68 0-2.424-1.056-2.448-2.688h1.68c0 .744.264 1.176.792 1.176.264 0 .456-.072.552-.24.216-.312.264-1.176-.048-1.512-.288-.408-.888-.6-1.32-.816-.552-.264-.96-.576-1.2-.936s-.36-.888-.36-1.536c-.024-1.44.912-2.472 2.4-2.448m-11.031.018c.711-.006 1.419.198 1.839.63.432.432.672 1.128.648 1.992H9.336c.024-.456-.096-.792-.432-.96-.312-.144-.768-.048-.888.24-.12.264-.192.576-.168.864v3.504c0 .744.264 1.128.768 1.128a.65.65 0 0 0 .552-.264c.168-.24.192-.552.168-.84h1.776c.096 1.632-.984 2.712-2.568 2.688-1.536 0-2.496-.864-2.472-2.472v-4.032c0-.816.24-1.44.696-1.848.432-.408 1.146-.624 1.857-.63" fill="#ffffff" transform="translate(243.5 972.5) scale(1.2083333333333333)"/>
      <text x="297" y="995.5" fill="#ffffff" font-family="Inter, ui-sans-serif, system-ui, -apple-system, BlinkMacSystemFont, Segoe UI, sans-serif" font-size="22" font-weight="850">CSS</text>
    </g>
    <g>
      <rect x="356" y="954" width="210" height="66" rx="33" fill="#F7DF1E"/>
      <rect x="369" y="966" width="42" height="42" rx="15" fill="#000000" fill-opacity="0.12"/>
<path d="M0 0h24v24H0V0zm22.034 18.276c-.175-1.095-.888-2.015-3.003-2.873-.736-.345-1.554-.585-1.797-1.14-.091-.33-.105-.51-.046-.705.15-.646.915-.84 1.515-.66.39.12.75.42.976.9 1.034-.676 1.034-.676 1.755-1.125-.27-.42-.404-.601-.586-.78-.63-.705-1.469-1.065-2.834-1.034l-.705.089c-.676.165-1.32.525-1.71 1.005-1.14 1.291-.811 3.541.569 4.471 1.365 1.02 3.361 1.244 3.616 2.205.24 1.17-.87 1.545-1.966 1.41-.811-.18-1.26-.586-1.755-1.336l-1.83 1.051c.21.48.45.689.81 1.109 1.74 1.756 6.09 1.666 6.871-1.004.029-.09.24-.705.074-1.65l.046.067zm-8.983-7.245h-2.248c0 1.938-.009 3.864-.009 5.805 0 1.232.063 2.363-.138 2.711-.33.689-1.18.601-1.566.48-.396-.196-.597-.466-.83-.855-.063-.105-.11-.196-.127-.196l-1.825 1.125c.305.63.75 1.172 1.324 1.517.855.51 2.004.675 3.207.405.783-.226 1.458-.691 1.811-1.411.51-.93.402-2.07.397-3.346.012-2.054 0-4.109 0-6.179l.004-.056z" fill="#101010" transform="translate(375.5 972.5) scale(1.2083333333333333)"/>
      <text x="429" y="995.5" fill="#101010" font-family="Inter, ui-sans-serif, system-ui, -apple-system, BlinkMacSystemFont, Segoe UI, sans-serif" font-size="22" font-weight="850">JavaScript</text>
    </g>
    <g>
      <rect x="580" y="954" width="156" height="66" rx="33" fill="#0769AD"/>
      <rect x="593" y="966" width="42" height="42" rx="15" fill="#ffffff" fill-opacity="0.18"/>
<path d="M1.525 5.87c-2.126 3.054-1.862 7.026-.237 10.269.037.079.078.154.118.229.023.052.049.1.077.15.013.027.031.056.047.082.026.052.054.102.081.152l.157.266c.03.049.057.097.09.146.056.094.12.187.178.281.026.04.05.078.079.117a6.368 6.368 0 00.31.445c.078.107.156.211.24.315.027.038.058.076.086.115l.22.269c.028.03.055.067.084.099.098.118.202.233.306.35l.005.006a3.134 3.134 0 00.425.44c.08.083.16.165.245.245l.101.097c.111.105.223.209.34.309.002 0 .003.002.005.003l.057.05c.102.089.205.178.31.26l.125.105c.085.068.174.133.26.2l.137.105c.093.07.192.139.287.207.035.025.07.05.106.073l.03.023.28.185.12.08c.148.094.294.184.44.272.041.02.084.044.123.068.108.062.22.125.329.183.06.034.122.063.184.094.075.042.153.083.234.125a.324.324 0 01.056.023c.033.015.064.031.096.047.12.06.245.118.375.175.024.01.05.02.076.034.144.063.289.123.438.182.034.01.07.027.105.04.135.051.274.103.411.152l.05.018c.154.052.305.102.46.15.036.01.073.023.111.033.16.048.314.105.474.137 10.273 1.872 13.258-6.177 13.258-6.177-2.508 3.266-6.958 4.127-11.174 3.169-.156-.036-.312-.086-.47-.132a13.539 13.539 0 01-.567-.182l-.062-.024c-.136-.046-.267-.097-.4-.148a1.615 1.615 0 00-.11-.04c-.148-.06-.29-.121-.433-.184-.031-.01-.057-.024-.088-.036a23.44 23.44 0 01-.362-.17 1.485 1.485 0 01-.106-.052c-.094-.044-.188-.095-.28-.143a3.947 3.947 0 01-.187-.096c-.114-.06-.227-.125-.34-.187-.034-.024-.073-.044-.112-.066a15.922 15.922 0 01-.439-.27 2.107 2.107 0 01-.118-.078 6.01 6.01 0 01-.312-.207c-.035-.023-.067-.048-.103-.073a9.553 9.553 0 01-.295-.212c-.042-.034-.087-.066-.132-.1-.088-.07-.177-.135-.265-.208l-.118-.095a10.593 10.593 0 01-.335-.28.258.258 0 00-.037-.031l-.347-.316-.1-.094c-.082-.084-.166-.164-.25-.246l-.098-.1a9.081 9.081 0 01-.309-.323l-.015-.016c-.106-.116-.21-.235-.313-.355-.027-.03-.053-.064-.08-.097l-.227-.277a21.275 21.275 0 01-.34-.449C2.152 11.79 1.306 7.384 3.177 3.771m4.943-.473c-1.54 2.211-1.454 5.169-.254 7.508a9.111 9.111 0 00.678 1.133c.23.33.484.721.793.988.107.122.223.24.344.36l.09.09c.114.11.232.217.35.325l.016.013a9.867 9.867 0 00.414.342c.034.023.063.05.096.073.14.108.282.212.428.316l.015.009c.062.045.128.086.198.13.028.018.06.042.09.06.106.068.21.132.318.197.017.007.032.016.048.023.09.055.188.108.282.157.033.02.065.035.1.054.066.033.132.068.197.102l.032.014c.135.067.273.129.408.19.034.014.063.025.092.039.111.048.224.094.336.137.05.017.097.037.144.052.102.038.21.073.31.108l.14.045c.147.045.295.104.449.13C22.164 17.206 24 11.098 24 11.098c-1.653 2.38-4.852 3.513-8.261 2.628a8.04 8.04 0 01-.449-.13c-.048-.014-.09-.029-.136-.043-.104-.036-.211-.07-.312-.109l-.144-.054c-.113-.045-.227-.087-.336-.135-.034-.015-.065-.025-.091-.04-.14-.063-.281-.125-.418-.192l-.206-.107-.119-.06a5.673 5.673 0 01-.265-.15.62.62 0 01-.062-.035c-.106-.066-.217-.13-.318-.198-.034-.019-.065-.042-.097-.062l-.208-.136c-.144-.1-.285-.208-.428-.313-.032-.029-.063-.053-.094-.079-1.499-1.178-2.681-2.79-3.242-4.613-.59-1.897-.46-4.023.56-5.75m4.292-.147c-.909 1.334-.996 2.99-.37 4.46.665 1.563 2.024 2.79 3.608 3.37.065.025.128.046.196.07l.088.027c.092.03.185.063.28.084 4.381.845 5.567-2.25 5.886-2.704-1.043 1.498-2.792 1.857-4.938 1.335a4.85 4.85 0 01-.516-.16 6.352 6.352 0 01-.618-.254 6.53 6.53 0 01-1.082-.66c-1.922-1.457-3.113-4.236-1.859-6.5" fill="#ffffff" transform="translate(599.5 972.5) scale(1.2083333333333333)"/>
      <text x="653" y="995.5" fill="#ffffff" font-family="Inter, ui-sans-serif, system-ui, -apple-system, BlinkMacSystemFont, Segoe UI, sans-serif" font-size="22" font-weight="850">jQuery</text>
    </g>
    <g>
      <rect x="60" y="1034" width="124" height="66" rx="33" fill="#00599C"/>
      <rect x="73" y="1046" width="42" height="42" rx="15" fill="#ffffff" fill-opacity="0.18"/>
<path d="M22.394 6c-.167-.29-.398-.543-.652-.69L12.926.22c-.509-.294-1.34-.294-1.848 0L2.26 5.31c-.508.293-.923 1.013-.923 1.6v10.18c0 .294.104.62.271.91.167.29.398.543.652.69l8.816 5.09c.508.293 1.34.293 1.848 0l8.816-5.09c.254-.147.485-.4.652-.69.167-.29.27-.616.27-.91V6.91c.003-.294-.1-.62-.268-.91zM12 19.11c-3.92 0-7.109-3.19-7.109-7.11 0-3.92 3.19-7.11 7.11-7.11a7.133 7.133 0 016.156 3.553l-3.076 1.78a3.567 3.567 0 00-3.08-1.78A3.56 3.56 0 008.444 12 3.56 3.56 0 0012 15.555a3.57 3.57 0 003.08-1.778l3.078 1.78A7.135 7.135 0 0112 19.11zm7.11-6.715h-.79v.79h-.79v-.79h-.79v-.79h.79v-.79h.79v.79h.79zm2.962 0h-.79v.79h-.79v-.79h-.79v-.79h.79v-.79h.79v.79h.79z" fill="#ffffff" transform="translate(79.5 1052.5) scale(1.2083333333333333)"/>
      <text x="133" y="1075.5" fill="#ffffff" font-family="Inter, ui-sans-serif, system-ui, -apple-system, BlinkMacSystemFont, Segoe UI, sans-serif" font-size="22" font-weight="850">C++</text>
    </g>
    <g>
      <rect x="198" y="1034" width="122" height="66" rx="33" fill="#777BB4"/>
      <rect x="211" y="1046" width="42" height="42" rx="15" fill="#ffffff" fill-opacity="0.18"/>
<path d="M7.01 10.207h-.944l-.515 2.648h.838c.556 0 .97-.105 1.242-.314.272-.21.455-.559.55-1.049.092-.47.05-.802-.124-.995-.175-.193-.523-.29-1.047-.29zM12 5.688C5.373 5.688 0 8.514 0 12s5.373 6.313 12 6.313S24 15.486 24 12c0-3.486-5.373-6.312-12-6.312zm-3.26 7.451c-.261.25-.575.438-.917.551-.336.108-.765.164-1.285.164H5.357l-.327 1.681H3.652l1.23-6.326h2.65c.797 0 1.378.209 1.744.628.366.418.476 1.002.33 1.752a2.836 2.836 0 0 1-.305.847c-.143.255-.33.49-.561.703zm4.024.715l.543-2.799c.063-.318.039-.536-.068-.651-.107-.116-.336-.174-.687-.174H11.46l-.704 3.625H9.388l1.23-6.327h1.367l-.327 1.682h1.218c.767 0 1.295.134 1.586.401s.378.7.263 1.299l-.572 2.944h-1.389zm7.597-2.265a2.782 2.782 0 0 1-.305.847c-.143.255-.33.49-.561.703a2.44 2.44 0 0 1-.917.551c-.336.108-.765.164-1.286.164h-1.18l-.327 1.682h-1.378l1.23-6.326h2.649c.797 0 1.378.209 1.744.628.366.417.477 1.001.331 1.751zM17.766 10.207h-.943l-.516 2.648h.838c.557 0 .971-.105 1.242-.314.272-.21.455-.559.551-1.049.092-.47.049-.802-.125-.995s-.524-.29-1.047-.29z" fill="#ffffff" transform="translate(217.5 1052.5) scale(1.2083333333333333)"/>
      <text x="271" y="1075.5" fill="#ffffff" font-family="Inter, ui-sans-serif, system-ui, -apple-system, BlinkMacSystemFont, Segoe UI, sans-serif" font-size="22" font-weight="850">PHP</text>
    </g>
<rect x="36" y="1146" width="828" height="168" rx="34" fill="#ffffff" fill-opacity="0.07" stroke="#ffffff" stroke-opacity="0.13"/>
<text x="60" y="1196" fill="#ffffff" font-family="Inter, ui-sans-serif, system-ui, -apple-system, BlinkMacSystemFont, Segoe UI, sans-serif" font-size="28" font-weight="850">Website builder</text>
    <g>
      <rect x="60" y="1224" width="188" height="66" rx="33" fill="#21759B"/>
      <rect x="73" y="1236" width="42" height="42" rx="15" fill="#ffffff" fill-opacity="0.18"/>
<path d="M21.469 6.825c.84 1.537 1.318 3.3 1.318 5.175 0 3.979-2.156 7.456-5.363 9.325l3.295-9.527c.615-1.54.82-2.771.82-3.864 0-.405-.026-.78-.07-1.11m-7.981.105c.647-.03 1.232-.105 1.232-.105.582-.075.514-.93-.067-.899 0 0-1.755.135-2.88.135-1.064 0-2.85-.15-2.85-.15-.585-.03-.661.855-.075.885 0 0 .54.061 1.125.09l1.68 4.605-2.37 7.08L5.354 6.9c.649-.03 1.234-.1 1.234-.1.585-.075.516-.93-.065-.896 0 0-1.746.138-2.874.138-.2 0-.438-.008-.69-.015C4.911 3.15 8.235 1.215 12 1.215c2.809 0 5.365 1.072 7.286 2.833-.046-.003-.091-.009-.141-.009-1.06 0-1.812.923-1.812 1.914 0 .89.513 1.643 1.06 2.531.411.72.89 1.643.89 2.977 0 .915-.354 1.994-.821 3.479l-1.075 3.585-3.9-11.61.001.014zM12 22.784c-1.059 0-2.081-.153-3.048-.437l3.237-9.406 3.315 9.087c.024.053.05.101.078.149-1.12.393-2.325.609-3.582.609M1.211 12c0-1.564.336-3.05.935-4.39L7.29 21.709C3.694 19.96 1.212 16.271 1.211 12M12 0C5.385 0 0 5.385 0 12s5.385 12 12 12 12-5.385 12-12S18.615 0 12 0" fill="#ffffff" transform="translate(79.5 1242.5) scale(1.2083333333333333)"/>
      <text x="133" y="1265.5" fill="#ffffff" font-family="Inter, ui-sans-serif, system-ui, -apple-system, BlinkMacSystemFont, Segoe UI, sans-serif" font-size="22" font-weight="850">WordPress</text>
    </g>
  </g>
  <rect x="1" y="1" width="898" height="1348" rx="43" stroke="#ffffff" stroke-opacity="0.15" stroke-width="2"/>
</svg>
