<svg width="1200" height="280" viewBox="0 0 1200 280" fill="none" xmlns="http://www.w3.org/2000/svg" role="img" aria-labelledby="title desc">
  <title id="title">Tools Jayden uses often</title>
  <desc id="desc">TypeScript, JavaScript, React, Node.js, PHP, Laravel, Python, Swift, Flutter, MySQL, GitHub Actions, and Figma.</desc>
  <defs>
    <linearGradient id="tool-bg" x1="0" y1="0" x2="1200" y2="280" gradientUnits="userSpaceOnUse">
      <stop offset="0" stop-color="#000000"/>
      <stop offset="1" stop-color="#544741"/>
    </linearGradient>
  </defs>
  <rect width="1200" height="280" rx="28" fill="url(#tool-bg)"/>
  <rect x="1" y="1" width="1198" height="278" rx="27" stroke="#ffffff" stroke-opacity="0.12" stroke-width="2"/>
  <text x="76" y="72" fill="#abcf37" font-family="Inter, ui-sans-serif, system-ui, -apple-system, BlinkMacSystemFont, Segoe UI, sans-serif" font-size="19" font-weight="900" letter-spacing="3">TOOLS I USE OFTEN</text>
  <text x="76" y="120" fill="#ffffff" font-family="Inter, ui-sans-serif, system-ui, -apple-system, BlinkMacSystemFont, Segoe UI, sans-serif" font-size="34" font-weight="900">Mostly web tools and business automation.</text>

  <g font-family="Inter, ui-sans-serif, system-ui, -apple-system, BlinkMacSystemFont, Segoe UI, sans-serif" font-size="17" font-weight="850">
    <rect x="76" y="158" width="148" height="42" rx="21" fill="#abcf37"/><text x="102" y="185" fill="#000000">TypeScript</text>
    <rect x="238" y="158" width="148" height="42" rx="21" fill="#ffffff" fill-opacity="0.12" stroke="#ffffff" stroke-opacity="0.16"/><text x="264" y="185" fill="#ffffff">JavaScript</text>
    <rect x="400" y="158" width="104" height="42" rx="21" fill="#ffffff" fill-opacity="0.12" stroke="#ffffff" stroke-opacity="0.16"/><text x="426" y="185" fill="#ffffff">React</text>
    <rect x="518" y="158" width="118" height="42" rx="21" fill="#ffffff" fill-opacity="0.12" stroke="#ffffff" stroke-opacity="0.16"/><text x="544" y="185" fill="#ffffff">Node.js</text>
    <rect x="650" y="158" width="82" height="42" rx="21" fill="#ffffff" fill-opacity="0.12" stroke="#ffffff" stroke-opacity="0.16"/><text x="676" y="185" fill="#ffffff">PHP</text>
    <rect x="746" y="158" width="112" height="42" rx="21" fill="#ffffff" fill-opacity="0.12" stroke="#ffffff" stroke-opacity="0.16"/><text x="772" y="185" fill="#ffffff">Laravel</text>
    <rect x="872" y="158" width="108" height="42" rx="21" fill="#ffffff" fill-opacity="0.12" stroke="#ffffff" stroke-opacity="0.16"/><text x="898" y="185" fill="#ffffff">Python</text>
    <rect x="994" y="158" width="84" height="42" rx="21" fill="#ffffff" fill-opacity="0.12" stroke="#ffffff" stroke-opacity="0.16"/><text x="1020" y="185" fill="#ffffff">Swift</text>

    <rect x="76" y="214" width="112" height="42" rx="21" fill="#ffffff" fill-opacity="0.12" stroke="#ffffff" stroke-opacity="0.16"/><text x="102" y="241" fill="#ffffff">Flutter</text>
    <rect x="202" y="214" width="104" height="42" rx="21" fill="#ffffff" fill-opacity="0.12" stroke="#ffffff" stroke-opacity="0.16"/><text x="228" y="241" fill="#ffffff">MySQL</text>
    <rect x="320" y="214" width="184" height="42" rx="21" fill="#ffffff" fill-opacity="0.12" stroke="#ffffff" stroke-opacity="0.16"/><text x="346" y="241" fill="#ffffff">GitHub Actions</text>
    <rect x="518" y="214" width="96" height="42" rx="21" fill="#ffffff" fill-opacity="0.12" stroke="#ffffff" stroke-opacity="0.16"/><text x="544" y="241" fill="#ffffff">Figma</text>
  </g>
</svg>
